# xmcd
#
# Track frame offsets: 
#        150
#        18870
#        36610
#        48414
#        62176
#        79131
#        106884
#        118935
#        146395
#        162272
#        196687
#
# Disc length: 2805 seconds
#
# Revision: 3
# Processed by: cddbd v1.4PL0 Copyright (c) Steve Scherf et al.
# Submitted via: ExactAudioCopy v0.90b4
#
DISCID=920af30b
DTITLE=the magic collection - JIMI HENDRIX
DYEAR=1900
DGENRE=Blues
TTITLE0=Good Feeling
TTITLE1=Hot Tigger
TTITLE2=Psycho
TTITLE3=Come On Baby Pt. 1
TTITLE4=Come On Baby Pt. 2
TTITLE5=Night Life
TTITLE6=You Got It
TTITLE7=Woke Up In The Morning
TTITLE8=Lime Lime
TTITLE9=Peoples People
TTITLE10=Whoa'eeh
EXTD=
EXTT0=
EXTT1=
EXTT2=
EXTT3=
EXTT4=
EXTT5=
EXTT6=
EXTT7=
EXTT8=
EXTT9=
EXTT10=
PLAYORDER=
